<svg version="1.1" xmlns="http://www.w3.org/2000/svg" xmlns:xlink="http://www.w3.org/1999/xlink" width="874.03939" height="771.29199" viewBox="0,0,256,225.89844"><g transform="translate(59.45727,52.46604) scale(0.53549,0.53549)"><g fill="#20c997" fill-rule="nonzero" stroke="none" stroke-width="1" stroke-linecap="butt" stroke-linejoin="miter" stroke-miterlimit="10" stroke-dasharray="" stroke-dashoffset="0" font-family="none" font-weight="none" font-size="none" text-anchor="none" style="mix-blend-mode: normal"><path d="M-111.03339,323.87605v-421.85367h478.06678v421.85367z" id="shape"></path></g><g fill="none" fill-rule="nonzero" stroke="none" stroke-width="1" stroke-linecap="butt" stroke-linejoin="miter" stroke-miterlimit="10" stroke-dasharray="" stroke-dashoffset="0" font-family="none" font-weight="none" font-size="none" text-anchor="none" style="mix-blend-mode: normal"><g transform="translate(-0.00015,-0.00379) scale(0.29289,0.29289)"><path transform="translate(-162.9803,-64.354)" d="M673.06187,155.13663c-6.61083,-10.93377 -14.4444,-22.60778 -26.71241,-26.178c-14.20721,-4.1345 -28.80156,4.07884 -41.18094,12.18371c-37.02146,24.23904 -72.67385,50.50728 -106.79381,78.68435l0.03733,0.42443c26.56372,-1.83189 53.12741,-3.66376 79.69107,-5.49561c19.19229,-1.32353 39.04395,-2.82962 56.00462,-11.90879c6.436,-3.44519 12.70971,-8.04728 20.00276,-8.368c9.06094,-0.39838 16.9615,5.92977 23.17024,12.54124c36.72672,39.109 47.3547,98.91591 88.5584,133.27607c-25.98179,-64.07562 -57.00482,-125.98955 -92.77726,-185.1594z" fill="#f2f2f2"></path><path transform="translate(-162.9803,-64.354)" d="M898.81566,486.85161c-4.06138,-5.12843 -5.72089,-6.32951 -9.7271,-11.50539c-32.6199,-42.18905 -63.27998,-85.80312 -91.98025,-130.84222c-19.49431,-30.58888 -38.02195,-61.76514 -55.58294,-93.52878c-8.36044,-15.10082 -16.49169,-30.32017 -24.39375,-45.65806c-6.13181,-11.89259 -12.12677,-23.8563 -17.98489,-35.89113c-1.67533,-3.43742 -3.3032,-6.89062 -4.923,-10.35172c-3.81675,-8.13911 -7.56252,-16.31772 -11.58454,-24.34624c-4.583,-9.15055 -10.16194,-18.74365 -18.57794,-24.89148c-3.82994,-2.91265 -8.40981,-4.67498 -13.2043,-5.081c-6.851,-0.44252 -13.17267,2.38643 -19.115,5.47612c-43.52073,22.87859 -84.14243,50.89098 -120.996,83.43784c-36.91001,32.41572 -69.90149,69.03773 -98.3019,109.11945c-0.86892,1.24063 -2.92353,0.05532 -2.04651,-1.19317c3.45329,-4.88351 6.975,-9.71431 10.56514,-14.49239c44.64094,-59.37127 99.37742,-110.42735 161.70742,-150.83444c10.48643,-6.79575 21.17002,-13.27281 32.05079,-19.43118c5.484,-3.1055 10.99188,-6.1715 16.59432,-9.04781c5.49208,-2.821 11.32371,-5.35762 17.59789,-5.45244c21.35138,-0.33187 32.40654,23.8484 40.00031,40.11876c2.38643,5.12051 4.80181,10.22524 7.24612,15.31419c9.23746,19.32049 18.83054,38.46454 28.77923,57.43214c6.13992,11.71086 12.41424,23.35323 18.82295,34.9271c19.94459,36.04127 41.14317,71.35294 63.59574,105.935c29.74345,45.8082 59.24961,86.27465 93.13353,129.11167c0.93259,1.18526 -0.73464,2.87631 -1.67532,1.67518z" fill="#e4e4e4"></path><path transform="translate(-162.9803,-64.354)" d="M508.63577,181.72953c-1.24048,-1.38286 -2.47325,-2.76572 -3.72184,-4.14858c-9.84593,-10.88906 -20.41068,-21.65166 -33.93138,-27.8943c-6.44673,-3.07052 -13.48427,-4.70182 -20.62445,-4.78073c-7.3804,0.02372 -14.59488,1.95969 -21.41426,4.67014c-3.2241,1.288 -6.37721,2.7499 -9.48247,4.30658c-3.54821,1.78587 -7.03314,3.6903 -10.50187,5.61049c-6.51148,3.60333 -12.93846,7.3647 -19.28094,11.28411c-12.61975,7.79933 -24.84428,16.19395 -36.67357,25.18385c-6.1322,4.66224 -12.13784,9.47724 -18.01692,14.445c-5.46816,4.61477 -10.82571,9.35337 -16.07266,14.21579c-1.122,1.03517 -2.79736,-0.64006 -1.67533,-1.67523c1.38286,-1.288 2.78154,-2.56817 4.18022,-3.83248c3.95103,-3.57175 7.96534,-7.07501 12.04292,-10.50977c7.43557,-6.27424 15.06368,-12.30614 22.88433,-18.09569c12.16137,-9.00836 24.74137,-17.40561 37.74,-25.19176c6.49566,-3.8878 13.08071,-7.61231 19.75514,-11.17352c2.01525,-1.07467 4.054,-2.12565 6.11638,-3.12132c4.67961,-2.36046 9.54193,-4.33975 14.5397,-5.91863c7.07958,-2.29023 14.56994,-3.02606 21.95985,-2.15725c7.13522,1.03787 14.00973,3.41605 20.261,7.00912c13.2753,7.42 23.57151,18.8938 33.59146,30.091c1.0117,1.13794 -0.65591,2.82108 -1.67531,1.68318z" fill="#e4e4e4"></path><path transform="translate(-162.9803,-64.354)" d="M780.64307,294.56892l31.8111,-11.63506l15.79433,-5.77686c5.14394,-1.88143 10.27552,-4.02328 15.59314,-5.37047c4.62113,-1.32001 9.5277,-1.25749 14.1137,0.17983c4.08977,1.51377 7.83341,3.83442 11.00834,6.824c3.24356,2.98693 6.26152,6.20991 9.02916,9.64249c3.43871,4.13257 6.82664,8.30845 10.22975,12.47034c14.04533,17.17696 27.99882,34.42847 41.86047,51.75453c13.86133,17.32578 27.63,34.72516 41.306,52.19814c13.70942,17.5157 27.32456,35.10464 40.84541,52.76683c1.65632,2.16368 3.31123,4.32845 4.96472,6.4943c0.91353,1.1965 2.9734,0.01691 2.047,-1.1965c-13.6206,-17.83979 -27.33614,-35.60656 -41.14661,-53.30032c-13.84444,-17.73604 -27.78454,-35.39685 -41.8203,-52.98243c-14.03548,-17.58524 -28.16581,-35.09422 -42.391,-52.52695c-3.54392,-4.34301 -7.09369,-8.68125 -10.6493,-13.0147c-2.99929,-3.65542 -5.96477,-7.35027 -9.25448,-10.75258c-6.03851,-6.2452 -13.58286,-11.76428 -22.61354,-11.914c-5.30957,-0.08805 -10.44809,1.5968 -15.38124,3.38144c-5.31814,1.92392 -10.62353,3.88384 -15.93487,5.82649l-32.03355,11.71642l-8.00839,2.9291c-1.42119,0.51981 -0.80725,2.81169 0.6302,2.28594z" fill="#e4e4e4"></path><path transform="translate(-162.9803,-64.354)" d="M466.79629,163.3884c-16.1657,-8.30835 -36.86813,-6.6811 -51.72326,3.69893c28.33506,4.8885 56.36008,11.4294 83.93162,19.58923c-11.44935,-6.70956 -20.40548,-17.22204 -32.20836,-23.28816z" fill="#f2f2f2"></path><path transform="translate(-162.9803,-64.354)" d="M414.91391,167.05873l-3.11211,2.52958c1.05268,-0.88536 2.147,-1.71545 3.27123,-2.501c-0.05311,-0.00914 -0.10603,-0.01942 -0.15912,-0.02858z" fill="#f2f2f2"></path><path transform="translate(-162.9803,-64.354)" d="M867.76588,294.68515c-3.13141,-3.81174 -6.517,-7.80285 -11.20077,-9.35109l-4.3729,0.17247c33.28786,58.82068 78.24555,110.2179 132.11357,151.03689c-38.84663,-47.28607 -77.69326,-94.57216 -116.5399,-141.85827z" fill="#f2f2f2"></path><path transform="translate(-162.9803,-64.354)" d="M667.56528,606.08057c-0.11765,0.00009 -0.23437,-0.02074 -0.34472,-0.06153l-84.26075,-30.95312c-0.51832,-0.19039 -0.78416,-0.76491 -0.59377,-1.28323c0.19039,-0.51832 0.76491,-0.78416 1.28323,-0.59377l84.26073,30.95317c0.4549,0.16716 0.72445,0.63648 0.63959,1.11363c-0.08486,0.47716 -0.49968,0.82477 -0.98432,0.82485z" fill="#12464a"></path><path transform="translate(-162.9803,-64.354)" d="M513.56528,548.08057c-0.11765,0.00009 -0.23437,-0.02074 -0.34472,-0.06153l-84.26075,-30.95312c-0.51832,-0.19039 -0.78416,-0.76491 -0.59377,-1.28323c0.19039,-0.51832 0.76491,-0.78416 1.28323,-0.59377l84.26073,30.95317c0.4549,0.16716 0.72445,0.63648 0.63959,1.11363c-0.08486,0.47716 -0.49968,0.82477 -0.98432,0.82485z" fill="#12464a"></path><path transform="translate(-162.9803,-64.354)" d="M356.56528,490.08057c-0.11765,0.00009 -0.23437,-0.02074 -0.34472,-0.06153l-84.26075,-30.95312c-0.51832,-0.19039 -0.78416,-0.76491 -0.59377,-1.28323c0.19039,-0.51832 0.76491,-0.78416 1.28323,-0.59377l84.26073,30.95317c0.4549,0.16716 0.72445,0.63648 0.63959,1.11363c-0.08486,0.47716 -0.49968,0.82477 -0.98432,0.82485z" fill="#12464a"></path><path transform="translate(-162.9803,-64.354)" d="M340.77789,339.73786c-3.513,-0.78529 -7.07046,-1.40541 -10.5834,-1.83746l-0.51119,-0.06323c-23.32139,-2.77664 -43.00988,6.9576 -45.79631,22.64455l-0.49522,2.83825c-0.30945,1.79507 -0.643,3.72484 -1.03969,5.85964c-0.192,1.05382 0.86683,2.13206 2.40721,2.47639l560.88944,125.38093c39.60727,8.56359 79.08714,17.02366 117.33655,25.14363c7.15742,1.61769 14.40819,2.79036 21.71065,3.51129c10.92716,0.92565 18.92738,-0.29292 24.46025,-3.72527l0.00143,0.00032c6.87669,-4.25263 8.60671,-11.15675 10.01929,-19.07845c2.84589,-15.99688 5.87651,-32.793 8.8972,-49.53834c2.66091,-14.75837 5.31588,-29.477 7.832,-43.57433c1.478,-8.36939 2.28148,-15.86888 -2.87865,-22.89126c-5.59586,-7.59812 -17.581,-13.49439 -35.62262,-17.52742c-0.218,-0.04872 -0.43435,-0.09709 -0.65537,-0.1455c-56.59242,-12.40748 -117.61866,-2.54964 -151.85437,24.53032c-3.94237,3.11838 -7.734,6.55259 -11.40129,9.87461c-5.42533,5.14525 -11.20702,9.90118 -17.302,14.23235c-3.36525,2.31669 -6.93549,4.32047 -10.66605,5.98627c-0.25666,0.12475 -0.54766,0.25483 -0.85089,0.37217c-0.70477,0.31777 -1.43307,0.61327 -2.13506,0.86462c-4.08665,1.57593 -8.3287,2.71468 -12.65519,3.3972l-0.43142,0.06466c-0.32638,0.05613 -0.67791,0.1067 -1.027,0.14668c-2.48018,0.33329 -4.97683,0.52983 -7.47861,0.58873c-10.81181,0.309 -22.58524,-1.66945 -34.9912,-5.88162c-11.44869,-3.93221 -22.38576,-9.22016 -32.578,-15.75109c-10.81449,-6.91445 -20.63934,-14.71742 -30.14091,-22.263c-4.17337,-3.3155 -8.49029,-6.74313 -12.82831,-10.0464c-0.81538,-0.62156 -1.61781,-1.23022 -2.43389,-1.84194c-5.31267,-3.96943 -10.17724,-7.35432 -14.87117,-10.34795c-11.52307,-7.38811 -24.0261,-13.1223 -37.14319,-17.03477c-13.864,-4.02977 -26.62952,-5.1282 -37.93113,-3.27465c-3.13896,0.51273 -6.23273,1.27159 -9.25267,2.26955c-13.92282,4.59682 -23.91659,13.74043 -33.58051,22.58341c-12.02134,10.99884 -24.45259,22.37336 -44.6111,25.204c-23.26268,3.2735 -53.83561,-7.08109 -74.69257,-17.86551c-6.55734,-3.3911 -13.04452,-7.05565 -19.31837,-10.60059c-2.53375,-1.432 -5.07075,-2.85869 -7.611,-4.28006c-4.99335,-2.78532 -9.09853,-4.9819 -12.9185,-6.91547l-1.20763,-0.61418c-0.67265,-0.33749 -1.346,-0.67514 -2.03422,-1.0071c-4.55048,-2.238 -8.82522,-4.15423 -13.07549,-5.85984l-1.00447,-0.40866c-2.02137,-0.78508 -3.91848,-1.48634 -5.78838,-2.13749l-0.74665,-0.259c-3.74276,-1.272 -7.55181,-2.3399 -11.41033,-3.19899z" fill="#f2f2f2"></path><path transform="translate(-162.9803,-64.354)" d="M1009.9813,528.062c-0.06973,0.00003 -0.13928,-0.00717 -0.20752,-0.02148l-740,-156.208c-0.5374,-0.11685 -0.87961,-0.64569 -0.76603,-1.18379c0.11358,-0.5381 0.64034,-0.88352 1.17912,-0.77321l740,156.208c0.50103,0.10558 0.84136,0.57256 0.78845,1.08186c-0.05292,0.50929 -0.48198,0.89633 -0.99402,0.89665z" fill="#12464a"></path><circle cx="693.50002" cy="51" r="51" fill="#ff6584"></circle><path transform="translate(-162.9803,-64.354)" d="M948.51573,76.22439c-24.7168,-3.341 -52.93512,10.01867 -59.34131,34.12353c-3.31268,-8.79416 -11.93191,-14.43674 -21.31696,-13.95514c-9.38505,0.48159 -17.38143,6.9768 -19.77654,16.06385l2.82971,2.02667c52.96747,11.45427 107.79707,11.20637 160.65881,-0.72638c-17.19287,-18.06892 -38.33685,-34.19165 -63.05371,-37.53253z" fill="#f0f0f0"></path><path transform="translate(-162.9803,-64.354)" d="M842.51573,144.22439c-24.7168,-3.34095 -52.93512,10.01867 -59.34131,34.12353c-3.31268,-8.79416 -11.93191,-14.43674 -21.31696,-13.95514c-9.38505,0.48159 -17.38143,6.9768 -19.77654,16.06385l2.82971,2.02667c52.96747,11.45427 107.79707,11.20637 160.65881,-0.72638c-17.19287,-18.06892 -38.33685,-34.19165 -63.05371,-37.53253z" fill="#f0f0f0"></path><path transform="translate(-162.9803,-64.354)" d="M886.872,553.437c-2.03728,-2.04765 -3.06293,-4.89252 -2.80097,-7.7691c0.26196,-2.87659 1.78463,-5.48939 4.15827,-7.13535l-15.54011,-77.18655l17.16108,5.50989l12.43908,74.65875c2.55683,4.26444 1.52008,9.76727 -2.41325,12.80894c-3.93332,3.04167 -9.52,2.66079 -13.0041,-0.88658z" fill="#9e616a"></path><path transform="translate(-162.9803,-64.354)" d="M863.92625,390.1305l10.64765,-8.03739c0,0 9.39288,-0.66516 11.05646,16.27378c1.66358,16.93894 5.0794,49.95013 5.0794,49.95013l16.293,75.46286l-22.55395,4.95047l-17.451,-81.43777l-10.46887,-24.184z" fill="#2f2e41"></path><path d="M718.5,449l-60,-1l-5,-41h65z" fill="#9e616a"></path><path d="M663.032,699.832l-13.851,-0.001l-6.59,-53.427l20.443,0.001z" fill="#9e616a"></path><path d="M751.276,680.645l-13.851,-0.097l-6.215,-53.472l18.015,4.133z" fill="#9e616a"></path><path d="M707.954,371.691l3.138,8.16l-0.627,8.16l-61.425,21.275l3.048,-35.712l6.905,-8.16z" fill="#ffb6b6"></path><circle cx="681.60247" cy="276.31957" r="21.93835" fill="#9e616a"></circle><path transform="translate(-162.9803,-64.354)" d="M832.20836,790.48614h-9.82871l-1.75438,-9.27947l-4.49323,9.27947h-26.06804c-2.56468,0.00015 -4.83147,-1.66752 -5.59471,-4.116c-0.76324,-2.44848 0.15444,-5.1088 2.26494,-6.566l20.8172,-14.37711v-9.38123l21.89607,1.3069z" fill="#2f2e41"></path><path transform="translate(-162.9803,-64.354)" d="M921.52345,771.35138l-9.82847,-0.0688l-1.68938,-9.29152l-4.55808,9.24779l-26.06745,-0.18247c-2.5646,-0.01783 -4.81962,-1.70132 -5.56569,-4.15506c-0.74607,-2.45374 0.19017,-5.10755 2.31077,-6.54994l20.91733,-14.231l0.06567,-9.381l21.88638,1.46013z" fill="#2f2e41"></path><path transform="translate(-162.9803,-64.354)" d="M918.56637,706.97349l-10.086,-61.61949l-12,-85c8.78784,-16.32031 -11,-67 -11,-67l-2.79323,0.134l-63.22044,11.92684l0.01362,-0.06084c-12.93066,35.26813 -17.21474,52.69133 -16.50612,90.24846l2.54743,135.00989h-0.79914c-2.76142,0 -5,2.23858 -5,5c0,2.76142 2.23858,5 5,5h25c2.76142,0 5,-2.23858 5,-5c0,-2.76142 -2.23858,-5 -5,-5h-0.64459l22.947,-160.75659l19.45542,67.49824l22,69c-8,-2 -6.75783,2.634 -6.75783,5.25835c0,2.76142 2.23858,5 5,5h25c2.39864,0.0025 4.46037,-1.70041 4.91105,-4.05633c0.45068,-2.35592 -0.83697,-4.69955 -3.06717,-5.58253z" fill="#2f2e41"></path><path transform="translate(-162.9803,-64.354)" d="M890.40291,495.97917l-2.00006,-20c-0.4261,-1.6738 -1.88154,-2.88286 -3.6051,-2.99481c-0.83331,-9.52728 -4.33935,-50.62872 -4.54883,-52.42127l-0.00818,-0.0758l-1.5943,-34.05774c-0.11986,-2.56089 -2.14427,-4.62312 -4.70251,-4.79035l-8.42078,-0.55041c-0.2401,-0.0081 -0.43057,-0.20507 -0.4306,-0.44531c0.00001,-1.8781 -0.74605,-3.67929 -2.07407,-5.00731c-1.32801,-1.32802 -3.12919,-2.0741 -5.00729,-2.07411h-24.93119c-3.34117,0.00136 -6.15927,2.48871 -6.57562,5.80383c-0.02294,0.22879 -0.21812,0.40137 -0.448,0.39612l-0.003,-0.00006c-5.85418,-0.12062 -10.91799,4.05451 -11.91547,9.82434c-3.40839,19.831 -10.23907,64.83984 -6.86188,89.86218c1.17566,8.71069 -1.3587,1.81158 -1.80328,9.09979c-0.08914,1.42247 0.39142,2.82196 1.33563,3.88959c-2.058,0.598 -2.85618,2.82131 -2.32811,4.91615l-0.43818,-0.10847c0.54001,2.1421 2.71427,3.44086 4.85638,2.90088l76.60353,-19.31086c2.14212,-0.53997 5.44089,17.28571 4.90091,15.14362z" fill="#2f2e41"></path><path transform="translate(-162.9803,-64.354)" d="M806.08865,553.437c2.03729,-2.04764 3.06296,-4.89251 2.80099,-7.7691c-0.26196,-2.87659 -1.78464,-5.4894 -4.15829,-7.13535l15.5401,-77.18656l-17.16107,5.50989l-12.43909,74.65875c-2.55687,4.26444 -1.52013,9.76731 2.41322,12.80899c3.93334,3.04169 9.52005,2.66078 13.00414,-0.88662z" fill="#9e616a"></path><path transform="translate(-162.9803,-64.354)" d="M829.03439,390.1305l-10.64764,-8.03739c0,0 -9.39289,-0.66516 -11.05646,16.27378c-1.66357,16.93894 -5.07941,49.95013 -5.07941,49.95013l-16.293,75.46286l22.554,4.95047l17.451,-81.43777l10.46887,-24.184z" fill="#2f2e41"></path><path transform="translate(-162.9803,-64.354)" d="M868.07564,321.1661c4.08708,1.21668 7.89992,-2.202 10.74458,-5.44087l-1.011,1.19957c6.69181,4.71255 10.69317,12.38968 13.28938,20.1611c2.59621,7.76284 4.04419,15.89416 6.97458,23.54562c2.93033,7.64287 7.66,15.03729 14.90022,18.85017c9.69922,5.10665 21.5834,2.78469 31.89962,-0.89971c0.13707,-0.0514 0.26561,-0.09424 0.40268,-0.14564c-4.17824,-7.80468 -6.73704,-16.37288 -7.52291,-25.19066c4.24381,8.28531 10.36419,15.46486 17.87339,20.96651c6.74072,-3.06413 13.22235,-6.66887 19.3814,-10.77889c3.98426,-2.66471 8.18268,-6.10917 8.6454,-10.88165c0.47124,-4.73827 -3.06745,-9.06523 -7.24019,-11.34442c-4.17274,-2.27914 -8.971,-3.0503 -13.52927,-4.4212c-4.5498,-1.36238 -9.19378,-3.59868 -11.58431,-7.71144c-5.50938,-9.45934 3.76148,-22.80013 -2.15064,-32.01959c-2.91323,-4.53264 -8.56826,-6.34911 -13.812,-7.60862c-8.00383,-1.91444 -16.12793,-3.28563 -24.31673,-4.10418c-7.18879,-0.71975 -14.61746,-0.98537 -21.45491,1.32807c-6.83751,2.31345 -13.04092,7.68571 -14.50606,14.7631c-3.99284,2.09924 -8.217,4.42125 -10.35905,8.40547c-2.14214,3.97568 -0.95114,10.04203 3.37582,11.32726z" fill="#2f2e41"></path><path transform="translate(-162.9803,-64.354)" d="M874.17675,319.57214c3.91362,4.90263 6.044,10.20454 6.044,13.37969c8.1301,14.8592 -3.49609,27.62261 -18.3556,35.75253c-5.92671,3.2597 -12.77022,4.45278 -19.45034,3.39093l-0.62168,-2.65376l-0.84227,2.39048c0,0 -9.67458,31.95357 -12.86574,33.828c1.211,-5.68666 2.59808,-32.01668 3.27221,-37.56651c0.93328,-7.55361 -2.3201,-18.799 -4.66693,-25.63764c-1.45515,-4.21471 -2.20195,-8.6414 -2.21006,-13.10023v-0.19495l-2.28513,7.34l-8.31933,-3.54892c1.54776,-8.87756 0,-18.95567 18.55562,-18.08159c10.03575,-6.90205 18.87341,-7.95341 26.133,-5.99583c0.93688,-1.44845 6.33924,1.26445 7.90037,0.50176" fill="#2f2e41"></path><path transform="translate(-162.9803,-64.354)" d="M894.95,475.58c-0.72587,6.47547 -5.76263,11.62764 -12.22,12.5l-45.17,6.12c-7.77725,1.04573 -14.9322,-4.40439 -15.99,-12.18l-6.51,-48.14c-0.42387,-3.12972 0.20964,-6.31135 1.8,-9.04l-0.31,-2.34c-2.61437,-0.95221 -4.48546,-3.27515 -4.85896,-6.03235c-0.3735,-2.75719 0.81215,-5.49422 3.07896,-7.10765l5.58,-25.85c-0.15116,-1.1197 0.17744,-2.25118 0.90487,-3.11572c0.72743,-0.86454 1.78607,-1.38177 2.91513,-1.42428c2.10197,-0.02305 3.88311,1.54245 4.13,3.63l0.51,3.8c1.414,10.42203 10.65819,17.96838 21.15232,17.26737c10.49413,-0.70101 18.65246,-9.40986 18.66768,-19.92737c-0.00053,-0.9063 -0.06066,-1.81159 -0.18,-2.71l-0.5,-3.74c-0.33806,-2.15629 1.05172,-4.20599 3.18,-4.69c1.07952,-0.20508 2.19585,0.04311 3.0868,0.68625c0.89094,0.64314 1.47797,1.62457 1.6232,2.71375l3.23,23.8c3.66964,-0.25306 6.98024,2.1952 7.81317,5.77801c0.83292,3.58281 -1.05821,7.24036 -4.46317,8.63199c3.26904,2.26466 5.43551,5.79923 5.97,9.74l6.52,48.15c0.15802,1.15382 0.17146,2.32285 0.04,3.48z" fill="#2cb1bc"></path><path transform="translate(-162.9803,-64.354)" d="M815.90592,423.55866c-0.11016,-0.82069 0.46483,-1.57567 1.28528,-1.68762l61.56637,-9.43744c0.82094,-0.1111 1.57652,0.46434 1.68762,1.28528c0.1111,0.82094 -0.46434,1.57652 -1.28528,1.68762l-61.56637,9.43744c-0.82069,0.11016 -1.57567,-0.46483 -1.68762,-1.28528z" fill="#3f3d56"></path><path transform="translate(-162.9803,-64.354)" d="M823.10114,448.82906l-2.03494,-15.03627c-0.32687,-2.41539 1.36619,-4.63843 3.78157,-4.96534l58.80132,-7.52189c2.4154,-0.32689 4.63848,1.36616 4.96541,3.78156l2.03494,15.03627c0.32686,2.41541 -1.36623,4.63846 -3.78163,4.96535l-23.48673,3.23126c0.04825,0.16055 0.08731,0.32372 0.117,0.48872l2.07876,15.36l19.81932,-2.68226c0.35436,-0.04857 0.70767,0.09582 0.92659,0.37866c0.21892,0.28285 0.27011,0.66108 0.13424,0.99194c-0.13587,0.33086 -0.43809,0.56396 -0.79261,0.61133l-19.81932,2.68227l-8.91869,1.207l-18.82837,2.54813c-0.54691,0.07333 -1.04985,-0.3102 -1.12385,-0.85702c-0.074,-0.54682 0.3089,-1.05023 0.85562,-1.12491l18.82835,-2.54816l-2.07875,-15.36c-0.01523,-0.16695 -0.02094,-0.33464 -0.0171,-0.50224l-26.49582,3.09714c-2.41536,0.32683 -4.63837,-1.36619 -4.96531,-3.78154z" fill="#3f3d56"></path><path transform="translate(-162.9803,-64.354)" d="M591.97983,835.646c-0.24709,0.00019 -0.48547,-0.09133 -0.66894,-0.25684l-428,-385.792c-0.40937,-0.36996 -0.44183,-1.00155 -0.07253,-1.41152c0.3693,-0.40997 1.00083,-0.44344 1.4114,-0.07481l428,385.792c0.3078,0.27712 0.41291,0.71531 0.26434,1.10191c-0.14858,0.3866 -0.5201,0.64161 -0.93427,0.64126z" fill="#12464a"></path><path transform="translate(-162.9803,-64.354)" d="M816.03,445.94c0.04268,-0.58402 -0.16937,-1.15795 -0.58152,-1.57393c-0.41215,-0.41598 -0.98409,-0.63333 -1.56848,-0.59607c-0.10762,0.00406 -0.21469,0.01745 -0.32,0.04l-12.66,2.86c-0.57205,0.13876 -1.05878,0.51288 -1.34,1.03c-0.18566,0.00698 -0.37004,0.0338 -0.55,0.08c-1.65685,0.37555 -2.69555,2.02315 -2.32,3.68c0.37555,1.65685 2.02315,2.69555 3.68,2.32c0.45289,-0.10507 0.87656,-0.31007 1.24,-0.6l4.29,12.08c0.44014,0.77754 1.33975,1.1724 2.21,0.97l8.23,-1.86c0.8626,-0.20206 1.49663,-0.93709 1.56994,-1.82zM800.18,452.92c-1.18465,0.27062 -2.36438,-0.47035 -2.635,-1.655c-0.27062,-1.18465 0.47035,-2.36438 1.655,-2.635c0.04,-0.01 0.08,0 0.12,-0.01c-0.00304,0.36438 0.09009,0.72312 0.27,1.04l1.57,2.74c-0.2733,0.25923 -0.61212,0.43901 -0.98,0.52z" fill="#cccccc"></path><path transform="translate(-162.9803,-64.354)" d="M813.88,443.77c0.12,1.6 -2.62,3.44 -6.29,4.17c-3.37006,0.69 -6.39,0.21 -7.24,-1.05c0.17084,-0.10136 0.35638,-0.17558 0.55,-0.22l12.66,-2.86c0.10531,-0.02255 0.21238,-0.03594 0.32,-0.04z" fill="#e6e6e6"></path><path transform="translate(-162.9803,-64.354)" d="M807.26359,475.72409l-3.67522,-7.6463c-2.153,-4.47933 1.78872,-9.24544 8.78746,-10.62368l8.62417,-1.45411l3.60748,25.20178l-0.74661,0.147c-6.99874,1.37828 -14.44429,-1.14537 -16.59728,-5.62469z" fill="#2cb1bc"></path><g fill="#12464a" opacity="0.2"><path transform="translate(-162.9803,-64.354)" d="M894.95,475.58c-0.72587,6.47547 -5.76263,11.62764 -12.22,12.5l-45.17,6.12c-5.47863,0.7408 -10.8895,-1.76373 -13.87,-6.42c2.57379,-3.1121 6.32799,-5.01094 10.36,-5.24c3.88,-0.2 7.64,1.09 11.44,1.81c9.18822,1.73148 18.69275,0.15507 26.83,-4.45c3.53,-2.05 6.71,-4.67 10.59,-6.13c3.88,-1.45 8.89,-1.4 11.7,1.43c0.12124,0.11937 0.2348,0.24629 0.34,0.38z"></path></g></g></g></g></svg>