<svg version="1.1" id="Layer_1" xmlns="http://www.w3.org/2000/svg" xmlns:xlink="http://www.w3.org/1999/xlink" x="0px" y="0px"
	 width="200" height="100" viewBox="0 0 196 51" enable-background="new 0 0 196 51" xml:space="preserve">
<path fill="#FEFFFE" opacity="1.000000" stroke="none" 
	d="
M53.000000,1.000000 
	C100.937996,1.000000 148.875992,1.000000 196.906982,1.000000 
	C196.906982,17.915581 196.906982,34.831844 196.906982,52.000000 
	C149.312729,52.000000 101.625023,52.000000 53.463104,51.531368 
	C52.942833,34.721298 52.896770,18.379856 52.909874,1.781953 
	C52.979359,1.350326 52.989681,1.175163 53.000000,1.000000 
M71.563683,26.659559 
	C69.159615,17.128111 69.159615,17.128111 65.868645,16.077183 
	C67.590706,23.101839 69.176216,29.774864 70.928032,36.403942 
	C71.107025,37.081268 72.333488,37.970234 72.983208,37.901672 
	C73.676537,37.828510 74.643639,36.831161 74.834404,36.072182 
	C76.324593,30.143166 77.701035,24.183874 78.976418,18.204884 
	C79.121727,17.523674 78.426338,16.663136 78.120758,15.885748 
	C76.349861,18.090006 75.659142,20.346151 75.009529,22.614069 
	C74.348022,24.923464 73.726967,27.244444 73.088203,29.560352 
	C72.799728,29.475973 72.511261,29.391596 72.222786,29.307217 
	C72.075417,28.670717 71.928047,28.034218 71.563683,26.659559 
M153.399200,37.968552 
	C157.555115,34.649990 157.529739,30.261600 156.140274,25.808247 
	C154.936935,21.951344 151.048752,20.462702 147.842346,22.223934 
	C144.875961,23.853327 143.254440,29.528044 144.723389,33.853374 
	C146.011475,37.646080 148.574142,39.502872 153.399200,37.968552 
M104.627968,26.838684 
	C106.989189,26.133213 109.820137,21.283482 111.692123,27.665331 
	C107.600349,28.719025 101.902367,28.436399 103.212975,34.524242 
	C104.676743,41.323528 110.274773,37.644783 114.661919,37.896954 
	C114.762901,36.251316 114.908905,34.794228 114.928520,33.335438 
	C114.957611,31.171600 115.173828,28.959005 114.811836,26.852852 
	C114.226723,23.448547 112.004662,21.545832 108.458061,21.926861 
	C105.800987,22.212322 103.087799,22.828697 104.627968,26.838684 
M93.202972,25.508148 
	C95.227699,25.744072 97.252426,25.979994 100.992149,26.415747 
	C99.067528,24.444670 97.944496,22.300087 96.593620,22.145416 
	C94.594902,21.916571 92.096771,22.655575 90.488762,23.875507 
	C89.713394,24.463745 90.045197,27.287809 90.694138,28.731585 
	C91.214378,29.889002 93.104424,30.355089 94.137924,31.378967 
	C95.146851,32.378517 95.840607,33.696201 96.672729,34.874226 
	C95.286705,34.721649 93.894615,34.609554 92.516724,34.402794 
	C91.538734,34.256042 90.579926,33.981529 88.363029,33.483124 
	C89.791481,35.566513 90.195618,36.522987 90.902496,37.122505 
	C93.752510,39.539646 98.068611,39.234646 99.667763,36.377876 
	C101.640869,32.853073 99.589516,30.895008 96.608948,29.273258 
	C95.258110,28.538267 94.191147,27.281563 93.202972,25.508148 
M170.656326,35.760067 
	C170.005722,34.462059 169.355118,33.164055 168.469360,31.396879 
	C172.078918,31.111162 174.798553,30.895889 177.529221,30.679739 
	C178.040665,26.439281 177.452255,23.104408 173.185806,22.035515 
	C170.183273,21.283279 167.170517,22.093674 166.458221,25.432337 
	C165.818436,28.431082 165.368393,32.001835 166.454453,34.657936 
	C167.230728,36.556446 170.572861,37.922131 172.993988,38.406582 
	C174.146484,38.637192 175.820816,36.259872 177.258774,35.063911 
	C176.900299,34.647343 176.541824,34.230774 176.183350,33.814205 
	C174.602692,34.510544 173.022049,35.206882 170.656326,35.760067 
M133.334763,22.646814 
	C129.163544,26.445955 130.547943,31.225229 131.630066,35.536606 
	C132.437866,38.755020 137.302734,39.611374 139.943192,37.591572 
	C142.824600,35.387466 143.839417,29.815586 142.191818,25.679165 
	C140.625198,21.745951 137.617645,21.373981 133.334763,22.646814 
M120.922066,26.837786 
	C123.087006,21.277388 126.016701,27.851803 129.725555,25.828615 
	C127.760300,24.198757 126.335938,22.123301 124.616684,21.840492 
	C122.860611,21.551628 120.350883,22.533766 118.992470,23.824162 
	C116.124512,26.548502 116.326851,34.051254 119.274406,36.691620 
	C120.560966,37.844086 122.896469,38.730534 124.479324,38.402927 
	C126.200165,38.046757 127.600021,36.139782 129.139832,34.908981 
	C127.668640,33.763840 126.998436,33.595139 126.468979,33.796505 
	C125.064804,34.330540 123.721443,35.024460 122.353889,35.654778 
	C121.848946,34.006432 121.245117,32.379738 120.877556,30.701305 
	C120.669678,29.752045 120.850006,28.717773 120.922066,26.837786 
M159.386261,17.247217 
	C159.359207,23.385551 159.266525,29.525061 159.376358,35.660942 
	C159.392700,36.573513 160.362793,37.469021 160.891632,38.372421 
	C161.536713,37.590683 162.721985,36.822037 162.741302,36.025135 
	C162.894012,29.723831 162.989212,23.410646 162.740967,17.115355 
	C162.643875,14.652644 161.167999,14.374224 159.386261,17.247217 
M183.685455,33.188404 
	C182.955292,28.685606 183.630783,24.794827 188.278488,22.323700 
	C185.757416,22.323700 183.236343,22.323700 180.180557,22.323700 
	C180.758774,27.972771 178.783691,33.417850 181.353683,38.437855 
	C181.888702,38.457130 182.423721,38.476406 182.958740,38.495678 
	C183.200684,37.016315 183.442627,35.536957 183.685455,33.188404 
M83.002426,25.833017 
	C83.002426,29.907303 83.002426,33.981586 83.002426,38.055874 
	C85.741737,36.141418 86.754097,24.341585 85.650543,22.990324 
	C85.329964,22.597780 84.125259,22.316847 84.065071,22.419247 
	C83.608582,23.195911 83.335884,24.080608 83.002426,25.833017 
z"/>
<path fill="#71E9B0" opacity="1.000000" stroke="none" 
	d="
M52.850708,2.038417 
	C52.896770,18.379856 52.942833,34.721298 52.994446,51.531368 
	C36.312439,52.000000 19.624876,52.000000 2.470984,51.531345 
	C2.005224,36.402676 2.111460,21.741377 1.933583,7.083525 
	C1.887955,3.323532 2.709940,1.822106 6.873847,1.893864 
	C22.195747,2.157909 37.524521,2.023145 52.850708,2.038417 
M27.617496,30.175377 
	C26.404844,26.297817 25.278664,22.389891 23.933279,18.558945 
	C23.453573,17.192991 22.442577,16.013618 21.674095,14.749079 
	C21.085007,15.010090 20.495918,15.271101 19.906830,15.532112 
	C21.630266,22.833946 23.309175,30.147091 25.156027,37.417576 
	C25.315250,38.044388 26.676060,38.859501 27.316675,38.737354 
	C28.014259,38.604336 28.835350,37.568226 29.060598,36.772423 
	C30.141966,32.951965 31.075838,29.088116 31.992071,25.223078 
	C32.757500,21.994188 33.426060,18.742334 34.137516,15.500651 
	C33.556328,15.342515 32.975136,15.184379 32.393944,15.026243 
	C28.674011,19.041433 29.472513,24.731373 27.617496,30.175377 
z"/>
<path fill="#8CEDC0" opacity="1.000000" stroke="none" 
	d="
M52.909874,1.781953 
	C37.524521,2.023145 22.195747,2.157909 6.873847,1.893864 
	C2.709940,1.822106 1.887955,3.323532 1.933583,7.083525 
	C2.111460,21.741377 2.005224,36.402676 2.002326,51.531345 
	C1.666667,51.005634 1.046633,50.012360 1.042837,49.016735 
	C0.982084,33.084572 1.000000,17.152103 1.000000,1.000000 
	C18.020264,1.000000 35.041473,1.000000 52.531342,1.000000 
	C52.989681,1.175163 52.979359,1.350326 52.909874,1.781953 
z"/>
<path fill="#7EEBB8" opacity="1.000000" stroke="none" 
	d="
M71.672180,27.028639 
	C71.928047,28.034218 72.075417,28.670717 72.222786,29.307217 
	C72.511261,29.391596 72.799728,29.475973 73.088203,29.560352 
	C73.726967,27.244444 74.348022,24.923464 75.009529,22.614069 
	C75.659142,20.346151 76.349861,18.090006 78.120758,15.885748 
	C78.426338,16.663136 79.121727,17.523674 78.976418,18.204884 
	C77.701035,24.183874 76.324593,30.143166 74.834404,36.072182 
	C74.643639,36.831161 73.676537,37.828510 72.983208,37.901672 
	C72.333488,37.970234 71.107025,37.081268 70.928032,36.403942 
	C69.176216,29.774864 67.590706,23.101839 65.868645,16.077183 
	C69.159615,17.128111 69.159615,17.128111 71.672180,27.028639 
z"/>
<path fill="#84ECBB" opacity="1.000000" stroke="none" 
	d="
M153.066101,38.146034 
	C148.574142,39.502872 146.011475,37.646080 144.723389,33.853374 
	C143.254440,29.528044 144.875961,23.853327 147.842346,22.223934 
	C151.048752,20.462702 154.936935,21.951344 156.140274,25.808247 
	C157.529739,30.261600 157.555115,34.649990 153.066101,38.146034 
M152.998993,33.895794 
	C153.054703,33.234726 153.252579,32.548462 153.140671,31.917112 
	C152.730942,29.605721 152.286331,27.292501 151.624756,25.047789 
	C151.566910,24.851515 149.045532,24.988531 148.992645,25.244408 
	C148.472168,27.762882 147.826172,30.370014 148.016663,32.891483 
	C148.248810,35.964291 150.002319,36.987595 152.998993,33.895794 
z"/>
<path fill="#80EBB9" opacity="1.000000" stroke="none" 
	d="
M104.300949,26.745573 
	C103.087799,22.828697 105.800987,22.212322 108.458061,21.926861 
	C112.004662,21.545832 114.226723,23.448547 114.811836,26.852852 
	C115.173828,28.959005 114.957611,31.171600 114.928520,33.335438 
	C114.908905,34.794228 114.762901,36.251316 114.661919,37.896954 
	C110.274773,37.644783 104.676743,41.323528 103.212975,34.524242 
	C101.902367,28.436399 107.600349,28.719025 111.692123,27.665331 
	C109.820137,21.283482 106.989189,26.133213 104.300949,26.745573 
M106.404778,34.923737 
	C110.511879,37.552048 110.975746,34.516598 111.831207,31.414440 
	C108.989204,30.954908 106.180412,29.721889 106.404778,34.923737 
z"/>
<path fill="#80EBB9" opacity="1.000000" stroke="none" 
	d="
M93.099190,25.884840 
	C94.191147,27.281563 95.258110,28.538267 96.608948,29.273258 
	C99.589516,30.895008 101.640869,32.853073 99.667763,36.377876 
	C98.068611,39.234646 93.752510,39.539646 90.902496,37.122505 
	C90.195618,36.522987 89.791481,35.566513 88.363029,33.483124 
	C90.579926,33.981529 91.538734,34.256042 92.516724,34.402794 
	C93.894615,34.609554 95.286705,34.721649 96.672729,34.874226 
	C95.840607,33.696201 95.146851,32.378517 94.137924,31.378967 
	C93.104424,30.355089 91.214378,29.889002 90.694138,28.731585 
	C90.045197,27.287809 89.713394,24.463745 90.488762,23.875507 
	C92.096771,22.655575 94.594902,21.916571 96.593620,22.145416 
	C97.944496,22.300087 99.067528,24.444670 100.992149,26.415747 
	C97.252426,25.979994 95.227699,25.744072 93.099190,25.884840 
z"/>
<path fill="#7BEBB6" opacity="1.000000" stroke="none" 
	d="
M171.048859,35.831646 
	C173.022049,35.206882 174.602692,34.510544 176.183350,33.814205 
	C176.541824,34.230774 176.900299,34.647343 177.258774,35.063911 
	C175.820816,36.259872 174.146484,38.637192 172.993988,38.406582 
	C170.572861,37.922131 167.230728,36.556446 166.454453,34.657936 
	C165.368393,32.001835 165.818436,28.431082 166.458221,25.432337 
	C167.170517,22.093674 170.183273,21.283279 173.185806,22.035515 
	C177.452255,23.104408 178.040665,26.439281 177.529221,30.679739 
	C174.798553,30.895889 172.078918,31.111162 168.469360,31.396879 
	C169.355118,33.164055 170.005722,34.462059 171.048859,35.831646 
M170.692154,28.967056 
	C172.044403,28.834522 173.396652,28.701986 174.748901,28.569450 
	C174.922531,28.016256 175.096161,27.463062 175.269775,26.909868 
	C173.717880,26.075895 172.165970,25.241922 170.614044,24.407951 
	C170.374588,25.883589 170.135117,27.359226 170.692154,28.967056 
z"/>
<path fill="#80EBB9" opacity="1.000000" stroke="none" 
	d="
M133.695328,22.441298 
	C137.617645,21.373981 140.625198,21.745951 142.191818,25.679165 
	C143.839417,29.815586 142.824600,35.387466 139.943192,37.591572 
	C137.302734,39.611374 132.437866,38.755020 131.630066,35.536606 
	C130.547943,31.225229 129.163544,26.445955 133.695328,22.441298 
M139.854492,31.273129 
	C139.742249,30.122238 139.929260,28.820900 139.444748,27.857166 
	C138.785690,26.546268 137.613602,25.493284 136.661530,24.329695 
	C135.751358,25.666798 134.665359,26.923086 133.999191,28.372349 
	C133.620499,29.196226 133.685699,30.415461 133.981125,31.315453 
	C134.493515,32.876354 135.339722,34.327671 136.045929,35.824947 
	C137.289276,34.571453 138.532623,33.317955 139.854492,31.273129 
z"/>
<path fill="#85ECBC" opacity="1.000000" stroke="none" 
	d="
M120.888771,27.279789 
	C120.850006,28.717773 120.669678,29.752045 120.877556,30.701305 
	C121.245117,32.379738 121.848946,34.006432 122.353889,35.654778 
	C123.721443,35.024460 125.064804,34.330540 126.468979,33.796505 
	C126.998436,33.595139 127.668640,33.763840 129.139832,34.908981 
	C127.600021,36.139782 126.200165,38.046757 124.479324,38.402927 
	C122.896469,38.730534 120.560966,37.844086 119.274406,36.691620 
	C116.326851,34.051254 116.124512,26.548502 118.992470,23.824162 
	C120.350883,22.533766 122.860611,21.551628 124.616684,21.840492 
	C126.335938,22.123301 127.760300,24.198757 129.725555,25.828615 
	C126.016701,27.851803 123.087006,21.277388 120.888771,27.279789 
z"/>
<path fill="#88EDBD" opacity="1.000000" stroke="none" 
	d="
M159.500671,16.840298 
	C161.167999,14.374224 162.643875,14.652644 162.740967,17.115355 
	C162.989212,23.410646 162.894012,29.723831 162.741302,36.025135 
	C162.721985,36.822037 161.536713,37.590683 160.891632,38.372421 
	C160.362793,37.469021 159.392700,36.573513 159.376358,35.660942 
	C159.266525,29.525061 159.359207,23.385551 159.500671,16.840298 
z"/>
<path fill="#85ECBC" opacity="1.000000" stroke="none" 
	d="
M183.685013,33.623001 
	C183.442627,35.536957 183.200684,37.016315 182.958740,38.495678 
	C182.423721,38.476406 181.888702,38.457130 181.353683,38.437855 
	C178.783691,33.417850 180.758774,27.972771 180.180557,22.323700 
	C183.236343,22.323700 185.757416,22.323700 188.278488,22.323700 
	C183.630783,24.794827 182.955292,28.685606 183.685013,33.623001 
z"/>
<path fill="#71E9B0" opacity="1.000000" stroke="none" 
	d="
M83.004150,25.382317 
	C83.335884,24.080608 83.608582,23.195911 84.065071,22.419247 
	C84.125259,22.316847 85.329964,22.597780 85.650543,22.990324 
	C86.754097,24.341585 85.741737,36.141418 83.002426,38.055874 
	C83.002426,33.981586 83.002426,29.907303 83.004150,25.382317 
z"/>
<path fill="#EEFCF5" opacity="1.000000" stroke="none" 
	d="
M27.767124,29.862043 
	C29.472513,24.731373 28.674011,19.041433 32.393944,15.026243 
	C32.975136,15.184379 33.556328,15.342515 34.137516,15.500651 
	C33.426060,18.742334 32.757500,21.994188 31.992071,25.223078 
	C31.075838,29.088116 30.141966,32.951965 29.060598,36.772423 
	C28.835350,37.568226 28.014259,38.604336 27.316675,38.737354 
	C26.676060,38.859501 25.315250,38.044388 25.156027,37.417576 
	C23.309175,30.147091 21.630266,22.833946 19.906830,15.532112 
	C20.495918,15.271101 21.085007,15.010090 21.674095,14.749079 
	C22.442577,16.013618 23.453573,17.192991 23.933279,18.558945 
	C25.278664,22.389891 26.404844,26.297817 27.767124,29.862043 
z"/>
<path fill="#FCFFFD" opacity="1.000000" stroke="none" 
	d="
M152.840286,34.296822 
	C150.002319,36.987595 148.248810,35.964291 148.016663,32.891483 
	C147.826172,30.370014 148.472168,27.762882 148.992645,25.244408 
	C149.045532,24.988531 151.566910,24.851515 151.624756,25.047789 
	C152.286331,27.292501 152.730942,29.605721 153.140671,31.917112 
	C153.252579,32.548462 153.054703,33.234726 152.840286,34.296822 
z"/>
<path fill="#F7FEFB" opacity="1.000000" stroke="none" 
	d="
M106.237488,34.564049 
	C106.180412,29.721889 108.989204,30.954908 111.831207,31.414440 
	C110.975746,34.516598 110.511879,37.552048 106.237488,34.564049 
z"/>
<path fill="#F2FDF8" opacity="1.000000" stroke="none" 
	d="
M170.293900,28.900959 
	C170.135117,27.359226 170.374588,25.883589 170.614044,24.407951 
	C172.165970,25.241922 173.717880,26.075895 175.269775,26.909868 
	C175.096161,27.463062 174.922531,28.016256 174.748901,28.569450 
	C173.396652,28.701986 172.044403,28.834522 170.293900,28.900959 
z"/>
<path fill="#F7FEFB" opacity="1.000000" stroke="none" 
	d="
M139.815231,31.668795 
	C138.532623,33.317955 137.289276,34.571453 136.045929,35.824947 
	C135.339722,34.327671 134.493515,32.876354 133.981125,31.315453 
	C133.685699,30.415461 133.620499,29.196226 133.999191,28.372349 
	C134.665359,26.923086 135.751358,25.666798 136.661530,24.329697 
	C137.613602,25.493284 138.785690,26.546268 139.444748,27.857166 
	C139.929260,28.820900 139.742249,30.122238 139.815231,31.668795 
z"/>
</svg>